<svg width="50" height="50" viewBox="0 0 50 50" fill="none" xmlns="http://www.w3.org/2000/svg">
<path d="M23.3716 50C36.2794 50 46.7432 39.5182 46.7432 26.5881C46.7432 13.6581 36.2794 3.17627 23.3716 3.17627C10.4638 3.17627 0 13.6581 0 26.5881C0 39.5182 10.4638 50 23.3716 50Z" fill="#F1F2F2"/>
<path d="M1.47068 27.0795C1.20093 27.0795 0.980225 26.8584 0.980225 26.5882C0.980225 26.318 1.20093 26.0969 1.47068 26.0969C1.60075 26.0969 1.7255 26.1487 1.81748 26.2408C1.90946 26.3329 1.96113 26.4579 1.96113 26.5882C1.96113 26.7185 1.90946 26.8435 1.81748 26.9356C1.7255 27.0277 1.60075 27.0795 1.47068 27.0795ZM1.55896 25.1168H1.51482C1.38485 25.1045 1.26714 25.0431 1.18131 24.9424C1.09793 24.8416 1.0587 24.7139 1.07096 24.5837C1.56387 19.0296 4.10442 13.8808 8.22423 10.083C12.371 6.26316 17.7488 4.1604 23.3719 4.1604C23.6416 4.1604 23.8623 4.37903 23.8623 4.64924C23.8623 4.77954 23.8107 4.90451 23.7187 4.99664C23.6267 5.08878 23.502 5.14054 23.3719 5.14054C12.3857 5.14054 3.02051 13.7186 2.04696 24.6697V24.6721C2.02244 24.9252 1.814 25.1168 1.55896 25.1168Z" fill="white"/>
<path d="M38.6257 8.85083C42.1558 12.9517 44.2902 18.2921 44.2902 24.1317C44.2902 37.0617 33.8264 47.5436 20.9186 47.5436C15.0889 47.5436 9.75788 45.4054 5.66406 41.8693C9.94989 46.8481 16.2929 50.0001 23.3709 50.0001C36.2787 50.0001 46.7425 39.5182 46.7425 26.5882C46.7428 19.498 43.5963 13.144 38.6257 8.85083Z" fill="#E6E7E8"/>
<path d="M39.2735 9.43066C43.1478 13.6092 45.5172 19.2073 45.5172 25.3598C45.5172 38.2898 35.0534 48.7717 22.1456 48.7717C16.0037 48.7717 10.4152 46.3985 6.2439 42.5172C10.5118 47.1199 16.606 49.9999 23.3718 49.9999C36.2795 49.9999 46.7434 39.5181 46.7434 26.5881C46.7434 19.8106 43.8683 13.7059 39.2735 9.43066Z" fill="#D1D3D4"/>
<path d="M23.372 43.6883C32.7999 43.6883 40.4427 36.0323 40.4427 26.5882C40.4427 17.144 32.7999 9.48804 23.372 9.48804C13.9441 9.48804 6.30127 17.144 6.30127 26.5882C6.30127 36.0323 13.9441 43.6883 23.372 43.6883Z" fill="white"/>
<path d="M33.3697 14.9434C33.0438 14.6523 32.5133 14.7447 32.3022 15.1267C31.1067 17.1606 28.9659 19.4447 26.0224 20.3514C28.6214 17.0307 29.2668 12.3054 27.407 8.48406C25.839 5.26629 22.871 3.00533 19.8447 1.24968C18.6843 0.561368 17.2024 1.69037 17.5572 2.99428C18.7193 7.27915 17.4957 12.0683 13.7707 14.6825C-1.36205 28.1137 16.9105 50.5029 33.06 38.3089C40.3631 32.4459 40.497 21.0001 33.3697 14.9434Z" fill="#E63950"/>
<path d="M33.6285 15.1685C39.2101 21.462 38.5879 31.6584 31.8336 37.0804C24.6649 42.4933 17.0778 41.0916 12.1802 36.6842C16.9682 42.0211 25.2616 44.1969 33.0598 38.3086C40.2739 32.5177 40.4929 21.28 33.6285 15.1685Z" fill="#D10028"/>
<path d="M32.3636 17.3019C32.5958 16.4935 32.6988 15.6544 32.6831 14.8137V14.8105C32.5213 14.8646 32.3856 14.9773 32.3025 15.1265C31.107 17.1604 28.9662 19.4447 26.0227 20.3512C26.0247 20.3485 26.0267 20.3459 26.0289 20.3433L26.0154 20.3512C25.8405 20.5963 23.4461 24.0224 22.3951 25.5243C22.2786 25.6891 22.3173 25.9173 22.4819 26.034C24.6566 25.9947 30.1715 23.749 32.3636 17.3019Z" fill="#B7022D"/>
<path d="M18.1023 1.39844C17.6494 1.76028 17.3835 2.35622 17.5569 2.99418C18.719 7.27904 17.4954 12.0682 13.7704 14.6824C10.2349 17.8201 8.523 21.4469 8.18115 25.0073C10.14 22.1249 12.9589 19.9811 15.7893 18.1294C21.2755 14.1371 22.6113 6.62635 18.1028 1.40114L18.1023 1.39844Z" fill="#D10028"/>
<path d="M23.3711 38.4902C29.0677 38.4902 33.6856 33.8643 33.6856 28.1579C33.6856 22.4516 29.0677 17.8257 23.3711 17.8257C17.6746 17.8257 13.0566 22.4516 13.0566 28.1579C13.0566 33.8643 17.6746 38.4902 23.3711 38.4902Z" fill="#FFA91A"/>
<path d="M29.3354 19.7271C30.5735 21.4721 31.237 23.5607 31.2335 25.7015C31.2335 31.4079 26.6156 36.0338 20.919 36.0338C18.7819 36.0371 16.6969 35.3725 14.9548 34.1324C16.8237 36.7695 19.8969 38.4903 23.3713 38.4903C29.0679 38.4903 33.6858 33.8644 33.6858 28.158C33.6858 24.6776 31.9679 21.5991 29.3354 19.7271Z" fill="#F79219"/>
<path d="M49.3492 6.282C50.2389 7.17322 50.2134 8.62599 49.2931 9.48551L33.5829 24.3075L31.355 22.0758L46.1515 6.3385C47.0093 5.41633 48.4596 5.39078 49.3492 6.282Z" fill="#E6E7E8"/>
<path d="M49.3495 6.28206C49.1392 6.0708 48.8884 5.9042 48.6123 5.79224C48.9468 6.62081 48.7624 7.60832 48.0672 8.25733L32.3567 23.0793L31.355 22.0758L33.5829 24.3076L49.2933 9.48558C50.2137 8.62605 50.2392 7.17328 49.3495 6.28206Z" fill="#D1D3D4"/>
<path d="M21.8117 30.4521L27.549 24.7048C27.7012 24.5565 27.9055 24.4741 28.1179 24.4755C28.3302 24.4769 28.5335 24.5621 28.6836 24.7125C28.8338 24.8629 28.9188 25.0665 28.9202 25.2792C28.9216 25.4919 28.8394 25.6967 28.6913 25.8491L22.9539 31.5963C22.8273 31.7231 22.7562 31.8951 22.7562 32.0745C22.7562 32.2538 22.8273 32.4258 22.9539 32.5526L23.1239 32.7228C23.2505 32.8497 23.4222 32.9209 23.6012 32.9209C23.7802 32.9209 23.9519 32.8497 24.0785 32.7228L29.8159 26.9756C29.968 26.8272 30.1724 26.7449 30.3848 26.7463C30.5971 26.7477 30.8004 26.8328 30.9505 26.9833C31.1007 27.1337 31.1857 27.3373 31.1871 27.55C31.1885 27.7627 31.1063 27.9674 30.9581 28.1199L25.2208 33.8671C25.0942 33.9939 25.0231 34.1659 25.0231 34.3452C25.0231 34.5246 25.0942 34.6966 25.2208 34.8234L25.414 35.017C25.5407 35.1438 25.7124 35.215 25.8914 35.215C26.0704 35.215 26.2421 35.1438 26.3687 35.017L33.6858 27.6873C34.589 26.7826 34.589 25.3155 33.6858 24.4106L31.2522 21.9727C30.349 21.068 28.8845 21.068 27.9811 21.9727L20.664 29.3024C20.5374 29.4292 20.4663 29.6012 20.4663 29.7806C20.4663 29.9599 20.5374 30.1319 20.664 30.2587L20.8572 30.4523C20.9839 30.579 21.1555 30.6501 21.3345 30.6501C21.5135 30.6501 21.6851 30.5788 21.8117 30.4521Z" fill="#E6E7E8"/>
<path d="M34.3359 25.7017C34.2625 26.1908 34.0342 26.6433 33.6845 26.9925L26.3675 34.3222C26.3048 34.385 26.2304 34.4348 26.1485 34.4688C26.0666 34.5028 25.9789 34.5203 25.8902 34.5203C25.8016 34.5203 25.7139 34.5028 25.632 34.4688C25.5501 34.4348 25.4757 34.385 25.413 34.3222L25.2198 34.1287C25.1806 34.0894 25.1463 34.0456 25.1178 33.998C25.0405 34.1273 25.0086 34.2787 25.0271 34.4282C25.0456 34.5778 25.1134 34.7169 25.2198 34.8234L25.413 35.0169C25.4757 35.0797 25.5501 35.1295 25.632 35.1635C25.7139 35.1975 25.8016 35.215 25.8902 35.215C25.9789 35.215 26.0666 35.1975 26.1485 35.1635C26.2304 35.1295 26.3048 35.0797 26.3675 35.0169L33.6845 27.6872C33.9411 27.4307 34.1337 27.1173 34.2469 26.7724C34.3601 26.4274 34.3905 26.0606 34.3359 25.7017Z" fill="#D1D3D4"/>
<path d="M38.5327 15.8511C41.2092 15.8511 43.3789 13.6777 43.3789 10.9966C43.3789 8.31554 41.2092 6.14209 38.5327 6.14209C35.8562 6.14209 33.6865 8.31554 33.6865 10.9966C33.6865 13.6777 35.8562 15.8511 38.5327 15.8511Z" fill="#76A34F"/>
<path d="M41.2495 6.97656C41.7938 7.77951 42.0841 8.72804 42.0826 9.6986C42.0826 12.3796 39.9128 14.5531 37.2364 14.5531C36.2675 14.5547 35.3206 14.2639 34.519 13.7187C35.3906 15.0054 36.8627 15.8509 38.5319 15.8509C41.2083 15.8509 43.3781 13.6774 43.3781 10.9964C43.3784 9.32448 42.5343 7.8496 41.2495 6.97656Z" fill="#648940"/>
<path d="M9.90233 9.70905C12.5788 9.70905 14.7485 7.53561 14.7485 4.85453C14.7485 2.17345 12.5788 0 9.90233 0C7.22586 0 5.05615 2.17345 5.05615 4.85453C5.05615 7.53561 7.22586 9.70905 9.90233 9.70905Z" fill="#76A34F"/>
<path d="M12.6192 0.834717C13.1635 1.63766 13.4537 2.5862 13.4522 3.55676C13.4522 6.23778 11.2824 8.41128 8.60603 8.41128C7.63714 8.41282 6.69024 8.12204 5.88867 7.57681C6.76021 8.86353 8.23231 9.70905 9.90157 9.70905C12.578 9.70905 14.7477 7.53554 14.7477 4.85453C14.7477 3.18239 13.9037 1.70776 12.6192 0.834717Z" fill="#648940"/>
<path d="M14.7485 29.7703C17.425 29.7703 19.5947 27.5969 19.5947 24.9158C19.5947 22.2347 17.425 20.0613 14.7485 20.0613C12.0721 20.0613 9.90234 22.2347 9.90234 24.9158C9.90234 27.5969 12.0721 29.7703 14.7485 29.7703Z" fill="#76A34F"/>
<path d="M17.4654 20.8958C18.0096 21.6987 18.2999 22.6472 18.2984 23.6178C18.2984 26.2988 16.1286 28.4723 13.4522 28.4723C12.4833 28.4739 11.5364 28.1831 10.7349 27.6378C11.6064 28.9246 13.0785 29.7701 14.7478 29.7701C17.4242 29.7701 19.5939 27.5966 19.5939 24.9156C19.5942 23.2434 18.7501 21.7688 17.4654 20.8958Z" fill="#648940"/>
<path d="M12.0243 5.53818H7.78085C7.59985 5.53818 7.42627 5.46616 7.29828 5.33795C7.17029 5.20974 7.09839 5.03585 7.09839 4.85454C7.09839 4.67323 7.17029 4.49934 7.29828 4.37113C7.42627 4.24292 7.59985 4.1709 7.78085 4.1709H12.0243C12.2053 4.1709 12.3789 4.24292 12.5068 4.37113C12.6348 4.49934 12.7067 4.67323 12.7067 4.85454C12.7067 5.03585 12.6348 5.20974 12.5068 5.33795C12.3789 5.46616 12.2053 5.53818 12.0243 5.53818ZM40.6545 11.6799H36.418C36.237 11.6799 36.0634 11.6079 35.9354 11.4797C35.8074 11.3515 35.7355 11.1776 35.7355 10.9963C35.7355 10.815 35.8074 10.6411 35.9354 10.5129C36.0634 10.3847 36.237 10.3126 36.418 10.3126H40.6545C40.8355 10.3126 41.0091 10.3847 41.1371 10.5129C41.2651 10.6411 41.337 10.815 41.337 10.9963C41.337 11.1776 41.2651 11.3515 41.1371 11.4797C41.0091 11.6079 40.8355 11.6799 40.6545 11.6799ZM16.8631 25.5992H12.627C12.446 25.5992 12.2724 25.5271 12.1445 25.3989C12.0165 25.2707 11.9446 25.0968 11.9446 24.9155C11.9446 24.7342 12.0165 24.5603 12.1445 24.4321C12.2724 24.3039 12.446 24.2319 12.627 24.2319H16.8633C16.9529 24.2319 17.0417 24.2496 17.1245 24.284C17.2073 24.3183 17.2825 24.3687 17.3459 24.4322C17.4092 24.4957 17.4595 24.5711 17.4938 24.654C17.528 24.737 17.5457 24.8259 17.5457 24.9156C17.5457 25.0054 17.528 25.0943 17.4937 25.1772C17.4594 25.2602 17.4091 25.3355 17.3457 25.399C17.2823 25.4625 17.2071 25.5128 17.1243 25.5472C17.0415 25.5815 16.9527 25.5992 16.8631 25.5992Z" fill="#F1F2F2"/>
</svg>
