<svg width="50" height="50" viewBox="0 0 50 50" fill="none" xmlns="http://www.w3.org/2000/svg">
<path d="M24.9948 8.2522C15.6944 8.2522 8.15515 15.8772 8.15515 25.283C8.15515 34.6887 15.6946 42.3137 24.9948 42.3137C34.2949 42.3137 41.8344 34.6887 41.8344 25.283C41.8344 15.8772 34.2952 8.2522 24.9948 8.2522Z" fill="#FFA91A"/>
<path d="M24.9948 12.0825C17.7862 12.0825 11.9424 17.9927 11.9424 25.2831C11.9424 32.5734 17.7862 38.4836 24.9948 38.4836C32.2033 38.4836 38.0472 32.5734 38.0472 25.2831C38.0472 17.9927 32.2033 12.0825 24.9948 12.0825Z" fill="#F1F2F2"/>
<path d="M35.7435 12.1736C38.1645 15.1231 39.6211 18.9114 39.6211 23.0443C39.6211 32.4503 32.0816 40.0751 22.7814 40.0751C18.6949 40.0751 14.9491 38.602 12.0327 36.1535C15.1216 39.9166 19.7811 42.3138 24.995 42.3138C34.2954 42.3138 41.8347 34.6887 41.8347 25.283C41.8344 20.01 39.4643 15.2975 35.7435 12.1736Z" fill="#F79219"/>
<path d="M36.3356 12.6941C39.0637 15.7206 40.7276 19.7456 40.7276 24.1637C40.7276 33.5696 33.1881 41.1944 23.888 41.1944C19.5195 41.1944 15.5397 39.5116 12.5471 36.7526C15.6269 40.1693 20.0631 42.3138 24.9948 42.3138C34.2952 42.3138 41.8344 34.6888 41.8344 25.283C41.8344 20.2954 39.714 15.8088 36.3356 12.6941Z" fill="#EF7816"/>
<path d="M17.4832 49.394C4.67851 45.32 -2.83041 31.53 1.00308 18.2016C4.62915 5.59338 17.3745 -2.15167 30.0843 0.529637C44.0263 3.47085 52.6684 17.551 49.2546 31.3985C48.3893 34.9081 46.7896 38.189 44.5633 41.0197C42.3371 43.8505 39.5362 46.1652 36.3498 47.8076L35.0423 45.215C37.862 43.7616 40.3407 41.7133 42.3108 39.2083C44.2809 36.7033 45.6966 33.7999 46.4624 30.6942C49.4832 18.4407 41.836 5.98157 29.499 3.37907C18.2524 1.00648 6.97422 7.86007 3.76541 19.0167C0.373534 30.8102 7.01694 43.0119 18.3463 46.6175C18.6959 46.7284 18.9906 46.97 19.17 47.2932C19.3494 47.6163 19.4001 47.9965 19.3116 48.3561C19.1111 49.1694 18.2737 49.6454 17.4832 49.394Z" fill="#FCFCFC"/>
<path d="M42.096 6.84717C47.7134 12.9062 50.2781 21.6379 48.1477 30.2791C47.3019 33.7085 45.7545 36.9204 43.6053 39.7076C41.4562 42.4948 38.753 44.7952 35.6704 46.4605L36.35 47.8077C39.5364 46.1653 42.3373 43.8506 44.5635 41.0198C46.7897 38.1891 48.3895 34.9082 49.2547 31.3987C51.5201 22.2088 48.4747 12.9181 42.096 6.84717Z" fill="#E6E7E8"/>
<path d="M39.9756 48.658L35.8844 41.772C35.5247 41.1666 34.6437 41.2094 34.3431 41.8467L31.2448 48.4156C30.9745 48.9884 31.3703 49.6542 31.9972 49.682L39.1867 49.9992C39.8842 50.0301 40.3353 49.2634 39.9756 48.658Z" fill="#E6E7E8"/>
<path d="M39.9757 48.6579L35.8846 41.7719C35.8123 41.6484 35.711 41.5448 35.5897 41.4703C35.4684 41.3958 35.3308 41.3527 35.1891 41.3447L38.869 47.5386C39.2287 48.1439 38.7775 48.9107 38.08 48.8798L31.1887 48.5758C31.0515 49.1057 31.4282 49.6568 31.9973 49.6819L39.1868 49.9991C39.8843 50.03 40.3355 49.2633 39.9757 48.6579Z" fill="#D1D3D4"/>
<path d="M16.5139 15.2486L12.0349 23.704C11.9732 24.2281 11.9423 24.7554 11.9424 25.2832C11.9399 27.1016 12.3103 28.9007 13.0301 30.567L22.7155 12.2832C20.4231 12.6926 18.2814 13.7167 16.5139 15.2486ZM25.4101 12.0891L14.3634 32.9429C15.1953 34.1216 16.2123 35.1547 17.3741 36.0012L29.5973 12.9266C28.2566 12.4163 26.8419 12.1333 25.4101 12.0891ZM24.9651 38.4835H24.9948C26.7732 38.4859 28.5331 38.1195 30.166 37.4069L37.8389 22.922C37.5209 21.1413 36.8421 19.4463 35.8454 17.9436L24.9651 38.4835Z" fill="#D1D3D4"/>
<path d="M24.9948 48.5439C28.4075 48.5439 31.174 45.746 31.174 42.2945C31.174 38.8431 28.4075 36.0452 24.9948 36.0452C21.5821 36.0452 18.8156 38.8431 18.8156 42.2945C18.8156 45.746 21.5821 48.5439 24.9948 48.5439Z" fill="#E6E7E8"/>
<path d="M20.1427 42.7427C19.8992 42.7427 19.7021 42.5412 19.7021 42.2949C19.7021 42.0487 19.8992 41.8472 20.1427 41.8472C20.3884 41.8472 20.5876 42.0487 20.5876 42.2949C20.5876 42.5412 20.3884 42.7427 20.1427 42.7427ZM20.4636 40.992C20.4083 40.992 20.3552 40.9808 20.3042 40.9607C20.1949 40.9181 20.1066 40.8334 20.0589 40.7251C20.0112 40.6168 20.0079 40.4938 20.0497 40.3831C20.4282 39.3824 21.0901 38.5272 21.9622 37.9071C22.8543 37.2757 23.9035 36.9399 24.9948 36.9399C25.1122 36.9399 25.2249 36.9871 25.3079 37.0711C25.3909 37.155 25.4375 37.2689 25.4375 37.3877C25.4375 37.5064 25.3909 37.6203 25.3079 37.7043C25.2249 37.7882 25.1122 37.8354 24.9948 37.8354C23.1819 37.8354 21.5261 38.9884 20.8753 40.7032C20.8112 40.8756 20.6451 40.992 20.4636 40.992Z" fill="white"/>
<path d="M29.3641 37.8755C29.1787 37.6888 28.9818 37.514 28.7747 37.3523C30.6542 39.8037 30.4829 43.3433 28.2573 45.5941C26.0318 47.8449 22.5319 48.0182 20.108 46.1173C20.2679 46.3268 20.4407 46.526 20.6253 46.7135C23.0386 49.1539 26.9509 49.1539 29.3641 46.7135C31.7774 44.273 31.7774 40.3161 29.3641 37.8755Z" fill="#D1D3D4"/>
<path d="M24.3256 45.6065C24.1834 45.6066 24.0425 45.5784 23.9111 45.5233C23.7796 45.4683 23.6602 45.3875 23.5597 45.2857L21.4272 43.1289C21.2324 42.9218 21.1253 42.6459 21.1289 42.3601C21.1324 42.0743 21.2462 41.8012 21.4461 41.5991C21.6459 41.3969 21.916 41.2818 22.1986 41.2782C22.4812 41.2747 22.754 41.3829 22.9588 41.5799L24.3256 42.9626L27.0382 40.219C27.243 40.022 27.5158 39.9138 27.7984 39.9173C28.081 39.9209 28.351 40.036 28.5509 40.2381C28.7507 40.4403 28.8645 40.7134 28.8681 40.9992C28.8716 41.285 28.7645 41.5609 28.5698 41.768L25.0913 45.2859C24.9909 45.3877 24.8715 45.4684 24.7401 45.5235C24.6087 45.5785 24.4679 45.6067 24.3256 45.6065Z" fill="#E63950"/>
<path d="M28.5697 40.2192C28.4934 40.1443 28.4066 40.0813 28.312 40.0322C28.5307 40.4466 28.4723 40.9711 28.127 41.3204L24.6485 44.8383C24.4371 45.0521 24.16 45.1591 23.8829 45.1591C23.6057 45.1591 23.3286 45.0521 23.1172 44.8383L23.5599 45.286C23.7713 45.4998 24.0484 45.6068 24.3256 45.6068C24.6027 45.6068 24.8799 45.4998 25.0913 45.286L28.5697 41.7681C28.7727 41.5627 28.8868 41.2841 28.8868 40.9936C28.8868 40.7032 28.7727 40.4246 28.5697 40.2192Z" fill="#D10028"/>
<path d="M13.9473 16.027C13.9473 9.94917 18.8935 5.02222 24.9948 5.02222C31.0961 5.02222 36.0424 9.94917 36.0424 16.027C36.0424 22.1049 31.0961 27.0319 24.9948 27.0319C24.5634 27.0319 24.1323 27.0071 23.7036 26.9575L19.6596 30.9859C19.0405 31.6024 17.9822 31.1659 17.9822 30.2937V24.531C15.5185 22.5128 13.9473 19.4527 13.9473 16.027Z" fill="#E63950"/>
<path d="M31.679 7.26465C33.0301 9.09032 33.829 11.3465 33.829 13.7887C33.829 19.8666 28.8828 24.7935 22.7815 24.7935C22.35 24.7936 21.9189 24.7687 21.4903 24.719L17.9822 28.2132V30.2938C17.9822 31.166 19.0407 31.6026 19.6596 30.986L23.7036 26.9577C24.1271 27.0067 24.5581 27.0322 24.9948 27.0322C31.0963 27.0322 36.0424 22.1053 36.0424 16.0274C36.0424 12.4517 34.3306 9.27479 31.679 7.26465Z" fill="#D10028"/>
<path d="M16.8753 23.4117C16.779 23.3327 16.684 23.2522 16.5902 23.1702C16.6832 23.2785 16.7781 23.3851 16.8753 23.4899V23.4117Z" fill="#B7022D"/>
<path d="M27.9264 7.15686C27.5243 8.04006 26.8234 8.7489 25.9501 9.15558C25.6363 9.30155 25.6363 9.7484 25.9501 9.89436C26.8234 10.301 27.5243 11.0099 27.9264 11.8931C28.0708 12.2105 28.5126 12.2105 28.6569 11.8931C29.059 11.0099 29.7599 10.301 30.6332 9.89436C30.9471 9.7484 30.9471 9.30155 30.6332 9.15558C29.7599 8.7489 29.059 8.04006 28.6569 7.15686C28.5126 6.83964 28.0708 6.83964 27.9264 7.15686Z" fill="#FFC91D"/>
<path d="M30.6332 9.15586C30.3685 9.03137 30.118 8.878 29.8863 8.69849C29.8688 8.74907 29.8413 8.79554 29.8055 8.83509C29.7698 8.87464 29.7265 8.90646 29.6782 8.92863C28.8049 9.33531 28.104 10.0442 27.7019 10.9273C27.68 10.9761 27.6485 11.0199 27.6094 11.0561C27.5703 11.0923 27.5244 11.1201 27.4744 11.1378C27.6518 11.3722 27.8035 11.6255 27.9266 11.8931C28.0709 12.2106 28.5128 12.2106 28.6571 11.8931C29.0592 11.0099 29.7601 10.3011 30.6334 9.89441C30.947 9.74867 30.947 9.3016 30.6332 9.15586Z" fill="#FFA91A"/>
<path d="M18.191 10.4342C17.7888 11.3174 17.0879 12.0262 16.2147 12.4329C15.9008 12.5789 15.9008 13.0257 16.2147 13.1717C17.0879 13.5784 17.7888 14.2872 18.191 15.1704C18.3353 15.4879 18.7771 15.4879 18.9214 15.1704C19.3236 14.2872 20.0244 13.5784 20.8977 13.1717C21.2116 13.0257 21.2116 12.5789 20.8977 12.4329C20.0244 12.0262 19.3236 11.3174 18.9214 10.4342C18.7771 10.117 18.3351 10.117 18.191 10.4342Z" fill="#FFC91D"/>
<path d="M20.8977 12.4332C20.633 12.3087 20.3826 12.1553 20.1508 11.9758C20.1333 12.0264 20.1058 12.0729 20.0701 12.1124C20.0343 12.152 19.991 12.1838 19.9427 12.206C19.0695 12.6127 18.3686 13.3215 17.9664 14.2047C17.9445 14.2535 17.9131 14.2973 17.874 14.3335C17.8349 14.3696 17.7889 14.3974 17.7389 14.4151C17.9163 14.6495 18.068 14.9028 18.1911 15.1705C18.3355 15.4879 18.7773 15.4879 18.9216 15.1705C19.3237 14.2873 20.0246 13.5784 20.8979 13.1717C21.2116 13.026 21.2116 12.5789 20.8977 12.4332ZM24.412 14.3699C23.7436 15.8376 22.5789 17.0157 21.1277 17.6917C20.6061 17.9342 20.6061 18.677 21.1277 18.9194C22.5789 19.5953 23.7437 20.7733 24.412 22.241C24.6517 22.7684 25.3862 22.7684 25.6259 22.241C26.2943 20.7733 27.459 19.5954 28.9102 18.9194C29.4317 18.677 29.4317 17.9342 28.9102 17.6917C27.4589 17.0158 26.2941 15.8377 25.6259 14.3699C25.3859 13.8422 24.6517 13.8422 24.412 14.3699Z" fill="#FFA91A"/>
<path d="M28.9102 17.6914C28.4668 17.4853 28.0536 17.2265 27.6688 16.9314C27.6396 17.0155 27.594 17.0927 27.5345 17.1584C27.475 17.2242 27.403 17.2771 27.3229 17.314C25.8715 17.9899 24.7067 19.168 24.0383 20.6358C24.0019 20.7169 23.9495 20.7897 23.8845 20.8498C23.8195 20.91 23.7432 20.9562 23.66 20.9857C23.9518 21.3748 24.2079 21.7928 24.4115 22.2412C24.6513 22.7686 25.3857 22.7686 25.6255 22.2412C26.2938 20.7734 27.4587 19.5953 28.91 18.9194C29.4317 18.6767 29.4317 17.9339 28.9102 17.6914Z" fill="#F79219"/>
</svg>
