<svg width="22" height="26" viewBox="0 0 22 26" fill="currentColor" xmlns="http://www.w3.org/2000/svg">
<path d="M2.15 11.7306H7.88333C8.45332 11.7297 8.99974 11.4646 9.40277 10.9933C9.80581 10.5221 10.0326 9.88327 10.0333 9.21687V2.51369C10.0326 1.84729 9.80581 1.20844 9.40277 0.737223C8.99974 0.266006 8.45332 0.000886761 7.88333 0H2.15C1.58002 0.000886761 1.0336 0.266006 0.630558 0.737223C0.227519 1.20844 0.000758461 1.84729 0 2.51369V9.21687C0.000758461 9.88327 0.227519 10.5221 0.630558 10.9933C1.0336 11.4646 1.58002 11.7297 2.15 11.7306ZM1.43333 2.51369C1.43333 2.29147 1.50884 2.07835 1.64324 1.92121C1.77764 1.76407 1.95993 1.67579 2.15 1.67579H7.88333C8.07341 1.67579 8.25569 1.76407 8.39009 1.92121C8.52449 2.07835 8.6 2.29147 8.6 2.51369V9.21687C8.6 9.43909 8.52449 9.65222 8.39009 9.80935C8.25569 9.96649 8.07341 10.0548 7.88333 10.0548H2.15C1.95993 10.0548 1.77764 9.96649 1.64324 9.80935C1.50884 9.65222 1.43333 9.43909 1.43333 9.21687V2.51369ZM2.15 25.1369H7.88333C8.45332 25.136 8.99974 24.8709 9.40277 24.3997C9.80581 23.9285 10.0326 23.2896 10.0333 22.6232V15.92C10.0326 15.2536 9.80581 14.6148 9.40277 14.1436C8.99974 13.6724 8.45332 13.4072 7.88333 13.4064H2.15C1.58002 13.4072 1.0336 13.6724 0.630558 14.1436C0.227519 14.6148 0.000758461 15.2536 0 15.92V22.6232C0.000758461 23.2896 0.227519 23.9285 0.630558 24.3997C1.0336 24.8709 1.58002 25.136 2.15 25.1369ZM1.43333 15.92C1.43333 15.6978 1.50884 15.4847 1.64324 15.3276C1.77764 15.1704 1.95993 15.0822 2.15 15.0822H7.88333C8.07341 15.0822 8.25569 15.1704 8.39009 15.3276C8.52449 15.4847 8.6 15.6978 8.6 15.92V22.6232C8.6 22.8454 8.52449 23.0586 8.39009 23.2157C8.25569 23.3728 8.07341 23.4611 7.88333 23.4611H2.15C1.95993 23.4611 1.77764 23.3728 1.64324 23.2157C1.50884 23.0586 1.43333 22.8454 1.43333 22.6232V15.92ZM19.35 0H13.6167C13.0467 0.000886761 12.5003 0.266006 12.0972 0.737223C11.6942 1.20844 11.4674 1.84729 11.4667 2.51369V9.21687C11.4674 9.88327 11.6942 10.5221 12.0972 10.9933C12.5003 11.4646 13.0467 11.7297 13.6167 11.7306H19.35C19.92 11.7297 20.4664 11.4646 20.8694 10.9933C21.2725 10.5221 21.4992 9.88327 21.5 9.21687V2.51369C21.4992 1.84729 21.2725 1.20844 20.8694 0.737223C20.4664 0.266006 19.92 0.000886761 19.35 0ZM20.0667 9.21687C20.0667 9.43909 19.9912 9.65222 19.8568 9.80935C19.7224 9.96649 19.5401 10.0548 19.35 10.0548H13.6167C13.4266 10.0548 13.2443 9.96649 13.1099 9.80935C12.9755 9.65222 12.9 9.43909 12.9 9.21687V2.51369C12.9 2.29147 12.9755 2.07835 13.1099 1.92121C13.2443 1.76407 13.4266 1.67579 13.6167 1.67579H19.35C19.5401 1.67579 19.7224 1.76407 19.8568 1.92121C19.9912 2.07835 20.0667 2.29147 20.0667 2.51369V9.21687ZM16.4833 13.4064C15.4911 13.4064 14.5212 13.7503 13.6962 14.3948C12.8712 15.0393 12.2282 15.9554 11.8485 17.0271C11.4688 18.0988 11.3695 19.2781 11.5631 20.4159C11.7566 21.5536 12.2344 22.5987 12.936 23.419C13.6376 24.2393 14.5315 24.7979 15.5046 25.0242C16.4778 25.2505 17.4865 25.1344 18.4031 24.6905C19.3198 24.2465 20.1033 23.4948 20.6545 22.5302C21.2058 21.5657 21.5 20.4317 21.5 19.2716C21.4985 17.7166 20.9695 16.2258 20.029 15.1262C19.0885 14.0266 17.8134 13.4081 16.4833 13.4064ZM16.4833 23.4611C15.7746 23.4611 15.0818 23.2154 14.4925 22.7551C13.9033 22.2947 13.444 21.6404 13.1728 20.8749C12.9016 20.1094 12.8306 19.267 12.9689 18.4543C13.1071 17.6416 13.4484 16.8951 13.9495 16.3092C14.4507 15.7233 15.0892 15.3243 15.7843 15.1627C16.4794 15.001 17.1998 15.084 17.8546 15.4011C18.5094 15.7181 19.069 16.2551 19.4628 16.9441C19.8565 17.633 20.0667 18.443 20.0667 19.2716C20.0655 20.3823 19.6876 21.4472 19.0159 22.2326C18.3441 23.018 17.4333 23.4598 16.4833 23.4611Z" fill="#347928"/>
</svg>
