<svg width="22" height="22" viewBox="0 0 22 22" fill="currentColor" xmlns="http://www.w3.org/2000/svg">
<path fill-rule="evenodd" clip-rule="evenodd" d="M10.9426 0.220947H11.0574C13.3658 0.220935 15.1748 0.220925 16.5863 0.406281C18.031 0.596004 19.1711 0.991917 20.0659 1.86592C20.9607 2.73992 21.366 3.85343 21.5603 5.26457C21.75 6.64323 21.75 8.4102 21.75 10.6649V10.777C21.75 13.0317 21.75 14.7987 21.5603 16.1773C21.366 17.5885 20.9607 18.702 20.0659 19.576C19.1711 20.45 18.031 20.8459 16.5863 21.0356C15.1748 21.221 13.3658 21.221 11.0574 21.2209H10.9426C8.63423 21.221 6.82519 21.221 5.41371 21.0356C3.96897 20.8459 2.82895 20.45 1.93414 19.576C1.03933 18.702 0.633986 17.5885 0.439747 16.1773C0.249977 14.7987 0.249987 13.0317 0.25 10.777V10.6649C0.249987 8.41019 0.249977 6.64323 0.439747 5.26457C0.633986 3.85343 1.03933 2.73992 1.93414 1.86592C2.82895 0.991917 3.96897 0.596004 5.41371 0.406281C6.82519 0.220925 8.63423 0.220935 10.9426 0.220947ZM5.61358 1.85833C4.33517 2.02621 3.56445 2.3455 2.9948 2.90191C2.42514 3.45832 2.09825 4.21112 1.92637 5.45979C1.75159 6.72954 1.75 8.39803 1.75 10.7209C1.75 13.0439 1.75159 14.7124 1.92637 15.9821C2.09825 17.2308 2.42514 17.9836 2.9948 18.54C3.56445 19.0964 4.33517 19.4157 5.61358 19.5836C6.91356 19.7543 8.62177 19.7558 11 19.7558C13.3782 19.7558 15.0864 19.7543 16.3864 19.5836C17.6648 19.4157 18.4355 19.0964 19.0052 18.54C19.5749 17.9836 19.9018 17.2308 20.0736 15.9821C20.2484 14.7124 20.25 13.0439 20.25 10.7209C20.25 8.39803 20.2484 6.72954 20.0736 5.45979C19.9018 4.21112 19.5749 3.45832 19.0052 2.90191C18.4355 2.3455 17.6648 2.02621 16.3864 1.85833C15.0864 1.68762 13.3782 1.68606 11 1.68606C8.62177 1.68606 6.91356 1.68762 5.61358 1.85833ZM9.51724 5.30675C9.81719 5.58577 9.82877 6.04947 9.5431 6.34244L6.68596 9.27267C6.5444 9.41785 6.34812 9.50002 6.14286 9.50002C5.9376 9.50002 5.74131 9.41785 5.59975 9.27267L4.4569 8.10058C4.17123 7.80761 4.18281 7.34391 4.48276 7.06489C4.78271 6.78587 5.25744 6.79718 5.5431 7.09015L6.14286 7.70525L8.4569 5.33201C8.74256 5.03904 9.21729 5.02773 9.51724 5.30675ZM11.25 7.79072C11.25 7.38613 11.5858 7.05816 12 7.05816H17C17.4142 7.05816 17.75 7.38613 17.75 7.79072C17.75 8.1953 17.4142 8.52327 17 8.52327H12C11.5858 8.52327 11.25 8.1953 11.25 7.79072ZM9.51724 12.144C9.81719 12.423 9.82877 12.8867 9.5431 13.1796L6.68596 16.1099C6.5444 16.2551 6.34812 16.3372 6.14286 16.3372C5.9376 16.3372 5.74131 16.2551 5.59975 16.1099L4.4569 14.9378C4.17123 14.6448 4.18281 14.1811 4.48276 13.9021C4.78271 13.6231 5.25744 13.6344 5.5431 13.9274L6.14286 14.5425L8.4569 12.1692C8.74256 11.8763 9.21729 11.8649 9.51724 12.144ZM11.25 14.6279C11.25 14.2233 11.5858 13.8954 12 13.8954H17C17.4142 13.8954 17.75 14.2233 17.75 14.6279C17.75 15.0325 17.4142 15.3605 17 15.3605H12C11.5858 15.3605 11.25 15.0325 11.25 14.6279Z" fill="black"/>
</svg>
