<svg width="22" height="22" viewBox="0 0 22 22" fill="currentColor" xmlns="http://www.w3.org/2000/svg">
<path d="M12.75 1.49509C14.6568 1.49509 16.0115 1.49668 17.0392 1.63439C18.0452 1.76921 18.6249 2.02205 19.0481 2.44388C19.5352 2.92942 19.7473 3.3058 19.8647 3.97677C19.9971 4.73305 20 5.81182 20 7.72462C20 8.13748 20.3358 8.47217 20.75 8.47217C21.1642 8.47217 21.5 8.13748 21.5 7.72462L21.5 7.62862C21.5001 5.83533 21.5001 4.62053 21.3424 3.71977C21.167 2.71773 20.7932 2.06888 20.1088 1.38669C19.3604 0.640776 18.4115 0.309746 17.239 0.152634C16.0998 -2.72691e-05 14.6442 -1.50791e-05 12.8064 3.07985e-07H12.75C12.3358 3.07985e-07 12 0.334688 12 0.747545C12 1.1604 12.3358 1.49509 12.75 1.49509Z" fill="white"/>
<path d="M0.750005 12.9574C1.16422 12.9574 1.50001 13.2921 1.50001 13.705C1.50001 15.6178 1.50289 16.6965 1.63529 17.4528C1.75275 18.1238 1.96477 18.5002 2.45191 18.9857C2.87512 19.4075 3.45476 19.6604 4.46085 19.7952C5.48852 19.9329 6.84318 19.9345 8.75 19.9345C9.16422 19.9345 9.50001 20.2692 9.50001 20.6821C9.50001 21.0949 9.16422 21.4296 8.75 21.4296H8.69359C6.85583 21.4296 5.4002 21.4296 4.26098 21.277C3.08856 21.1199 2.13961 20.7888 1.39125 20.0429C0.706812 19.3607 0.333043 18.7119 0.157616 17.7098C-7.75605e-05 16.8091 -4.55875e-05 15.5943 1.61988e-06 13.801L5.25576e-06 13.705C5.25576e-06 13.2921 0.335792 12.9574 0.750005 12.9574Z" fill="white"/>
<path d="M20.75 12.9574C21.1642 12.9574 21.5 13.2921 21.5 13.705L21.5 13.801C21.5001 15.5943 21.5001 16.8091 21.3424 17.7098C21.167 18.7119 20.7932 19.3607 20.1088 20.0429C19.3604 20.7888 18.4115 21.1199 17.239 21.277C16.0998 21.4296 14.6442 21.4296 12.8064 21.4296H12.75C12.3358 21.4296 12 21.0949 12 20.6821C12 20.2692 12.3358 19.9345 12.75 19.9345C14.6568 19.9345 16.0115 19.9329 17.0392 19.7952C18.0452 19.6604 18.6249 19.4075 19.0481 18.9857C19.5352 18.5002 19.7473 18.1238 19.8647 17.4528C19.9971 16.6965 20 15.6178 20 13.705C20 13.2921 20.3358 12.9574 20.75 12.9574Z" fill="white"/>
<path d="M8.69359 3.07985e-07H8.75001C9.16422 3.07985e-07 9.50001 0.334688 9.50001 0.747545C9.50001 1.1604 9.16422 1.49509 8.75001 1.49509C6.84319 1.49509 5.48852 1.49668 4.46085 1.63439C3.45476 1.76921 2.87512 2.02205 2.45191 2.44388C1.96477 2.92942 1.75275 3.3058 1.63529 3.97677C1.50289 4.73305 1.50001 5.81182 1.50001 7.72462C1.50001 8.13748 1.16422 8.47217 0.750005 8.47217C0.335792 8.47217 5.25576e-06 8.13748 5.25576e-06 7.72462L1.61988e-06 7.62862C-4.55875e-05 5.83536 -7.75605e-05 4.62052 0.157616 3.71977C0.333043 2.71773 0.706811 2.06888 1.39125 1.38669C2.13961 0.640776 3.08856 0.309746 4.26098 0.152634C5.40019 -2.72542e-05 6.85584 -1.50791e-05 8.69359 3.07985e-07Z" fill="white"/>
<path d="M0.750005 9.96725C0.335792 9.96725 5.25576e-06 10.3019 5.25576e-06 10.7148C5.25576e-06 11.1277 0.335792 11.4623 0.750005 11.4623H20.75C21.1642 11.4623 21.5 11.1277 21.5 10.7148C21.5 10.3019 21.1642 9.96725 20.75 9.96725H0.750005Z" fill="white"/>
</svg>
