<svg width="22" height="22" viewBox="0 0 22 22" fill="none" xmlns="http://www.w3.org/2000/svg">
<path d="M12.75 1.4951C14.6568 1.4951 16.0115 1.49669 17.0392 1.63441C18.0452 1.76923 18.6249 2.02207 19.0481 2.44389C19.5352 2.92943 19.7473 3.30582 19.8647 3.97679C19.9971 4.73306 20 5.81184 20 7.72464C20 8.1375 20.3358 8.47218 20.75 8.47218C21.1642 8.47218 21.5 8.1375 21.5 7.72464L21.5 7.62864C21.5001 5.83535 21.5001 4.62054 21.3424 3.71978C21.167 2.71774 20.7932 2.0689 20.1088 1.3867C19.3604 0.640791 18.4115 0.309761 17.239 0.152649C16.0998 -1.20102e-05 14.6442 1.79654e-07 12.8064 1.55668e-05H12.75C12.3358 1.55668e-05 12 0.334703 12 0.74756C12 1.16042 12.3358 1.4951 12.75 1.4951Z" fill="white"/>
<path d="M0.750005 12.9574C1.16422 12.9574 1.50001 13.2921 1.50001 13.705C1.50001 15.6178 1.50289 16.6966 1.63529 17.4528C1.75275 18.1238 1.96477 18.5002 2.45191 18.9857C2.87512 19.4076 3.45476 19.6604 4.46085 19.7952C5.48852 19.9329 6.84318 19.9345 8.75 19.9345C9.16422 19.9345 9.50001 20.2692 9.50001 20.6821C9.50001 21.0949 9.16422 21.4296 8.75 21.4296H8.69359C6.85583 21.4296 5.4002 21.4296 4.26098 21.277C3.08856 21.1199 2.13961 20.7888 1.39125 20.0429C0.706812 19.3607 0.333043 18.7119 0.157616 17.7098C-7.75605e-05 16.8091 -4.55875e-05 15.5943 1.61989e-06 13.801L5.25577e-06 13.705C5.25577e-06 13.2921 0.335792 12.9574 0.750005 12.9574Z" fill="white"/>
<path d="M20.75 12.9574C21.1642 12.9574 21.5 13.2921 21.5 13.705L21.5 13.801C21.5001 15.5943 21.5001 16.8091 21.3424 17.7098C21.167 18.7119 20.7932 19.3607 20.1088 20.0429C19.3604 20.7888 18.4115 21.1199 17.239 21.277C16.0998 21.4296 14.6442 21.4296 12.8064 21.4296H12.75C12.3358 21.4296 12 21.0949 12 20.6821C12 20.2692 12.3358 19.9345 12.75 19.9345C14.6568 19.9345 16.0115 19.9329 17.0392 19.7952C18.0452 19.6604 18.6249 19.4076 19.0481 18.9857C19.5352 18.5002 19.7473 18.1238 19.8647 17.4528C19.9971 16.6966 20 15.6178 20 13.705C20 13.2921 20.3358 12.9574 20.75 12.9574Z" fill="white"/>
<path d="M8.69359 1.55668e-05H8.75001C9.16422 1.55668e-05 9.50001 0.334703 9.50001 0.74756C9.50001 1.16042 9.16422 1.4951 8.75001 1.4951C6.84319 1.4951 5.48852 1.49669 4.46085 1.63441C3.45476 1.76923 2.87512 2.02207 2.45191 2.44389C1.96477 2.92943 1.75275 3.30582 1.63529 3.97679C1.50289 4.73306 1.50001 5.81184 1.50001 7.72464C1.50001 8.1375 1.16422 8.47218 0.750005 8.47218C0.335792 8.47218 5.25577e-06 8.1375 5.25577e-06 7.72464L1.61989e-06 7.62864C-4.55875e-05 5.83537 -7.75605e-05 4.62053 0.157616 3.71978C0.333043 2.71774 0.706811 2.0689 1.39125 1.3867C2.13961 0.640791 3.08856 0.309761 4.26098 0.152649C5.40019 -1.19953e-05 6.85584 1.79656e-07 8.69359 1.55668e-05Z" fill="white"/>
<path d="M0.750005 9.96727C0.335792 9.96727 5.25577e-06 10.302 5.25577e-06 10.7148C5.25577e-06 11.1277 0.335792 11.4624 0.750005 11.4624H20.75C21.1642 11.4624 21.5 11.1277 21.5 10.7148C21.5 10.302 21.1642 9.96727 20.75 9.96727H0.750005Z" fill="white"/>
</svg>
